# xmcd
#
# Track frame offsets:
#  150
#  12307
#  27244
#  38886
#  53053
#  66954
#  86792
#  103162
#  115884
#  126343
#  137188
#  149697
#  164020
#
# Disc length: 2303 seconds
#
# Revision: 0
# Processed by: cddbd v1.5.1PL0 Copyright (c) Steve Scherf et al.
# Submitted via: Collectorz.com_Music_Collector 6.9
#
DISCID=c508fd0d
DTITLE=Chris White - From The Sacred To The Profane
DYEAR=2003
DGENRE=Blues -  Blues Acoustic -  Blues Traditional
TTITLE0=You Gotta Move
TTITLE1=Beulah Land
TTITLE2=Satisfied And Tickled Too
TTITLE3=Spoonful
TTITLE4=Cropduster Blues
TTITLE5=Collateral Damage
TTITLE6=Rollin' And Tumblin'
TTITLE7=My Lips Are Making Promises (That My Heart Can't Keep)
TTITLE8=Peepin' And Moanin' Blues
TTITLE9=Diddy Wah Diddy
TTITLE10=Let Me Play With Your Poodle
TTITLE11=A 3am Leaving
TTITLE12=Come In My Kitchen
EXTD=
EXTT0=
EXTT1=
EXTT2=
EXTT3=
EXTT4=
EXTT5=
EXTT6=
EXTT7=
EXTT8=
EXTT9=
EXTT10=
EXTT11=
EXTT12=
PLAYORDER=
